{"glyphs":{"0":{"ha":606,"x_min":0,"x_max":694,"o":"m 694 1042 l 694 0 l 0 0 l 0 1042 l 694 1042 m 694 1042 l 694 0 l 0 0 l 0 1042 l 694 1042 z "},"1":{"ha":606,"x_min":0,"x_max":694,"o":"m 694 1042 l 694 0 l 0 0 l 0 1042 l 694 1042 m 694 1042 l 694 0 l 0 0 l 0 1042 l 694 1042 z "},"2":{"ha":606,"x_min":0,"x_max":694,"o":"m 694 1042 l 694 0 l 0 0 l 0 1042 l 694 1042 m 694 1042 l 694 0 l 0 0 l 0 1042 l 694 1042 z "},"3":{"ha":606,"x_min":0,"x_max":694,"o":"m 694 1042 l 694 0 l 0 0 l 0 1042 l 694 1042 m 694 1042 l 694 0 l 0 0 l 0 1042 l 694 1042 z "},"4":{"ha":606,"x_min":0,"x_max":694,"o":"m 694 1042 l 694 0 l 0 0 l 0 1042 l 694 1042 m 694 1042 l 694 0 l 0 0 l 0 1042 l 694 1042 z "},"5":{"ha":606,"x_min":0,"x_max":694,"o":"m 694 1042 l 694 0 l 0 0 l 0 1042 l 694 1042 m 694 1042 l 694 0 l 0 0 l 0 1042 l 694 1042 z "},"6":{"ha":606,"x_min":0,"x_max":694,"o":"m 694 1042 l 694 0 l 0 0 l 0 1042 l 694 1042 m 694 1042 l 694 0 l 0 0 l 0 1042 l 694 1042 z "},"7":{"ha":606,"x_min":0,"x_max":694,"o":"m 694 1042 l 694 0 l 0 0 l 0 1042 l 694 1042 m 694 1042 l 694 0 l 0 0 l 0 1042 l 694 1042 z "},"8":{"ha":606,"x_min":0,"x_max":694,"o":"m 694 1042 l 694 0 l 0 0 l 0 1042 l 694 1042 m 694 1042 l 694 0 l 0 0 l 0 1042 l 694 1042 z "},"9":{"ha":606,"x_min":0,"x_max":694,"o":"m 694 1042 l 694 0 l 0 0 l 0 1042 l 694 1042 m 694 1042 l 694 0 l 0 0 l 0 1042 l 694 1042 z "},"\r":{"ha":606,"x_min":0,"x_max":694,"o":"m 694 1042 l 694 0 l 0 0 l 0 1042 l 694 1042 m 694 1042 l 694 0 l 0 0 l 0 1042 l 694 1042 z "},"\u0000":{"ha":606,"x_min":0,"x_max":694,"o":"m 694 1042 l 694 0 l 0 0 l 0 1042 l 694 1042 m 694 1042 l 694 0 l 0 0 l 0 1042 l 694 1042 z "},"\u0002":{"ha":606,"x_min":0,"x_max":694,"o":"m 694 1042 l 694 0 l 0 0 l 0 1042 l 694 1042 m 694 1042 l 694 0 l 0 0 l 0 1042 l 694 1042 z "},"\t":{"ha":606,"x_min":0,"x_max":694,"o":"m 694 1042 l 694 0 l 0 0 l 0 1042 l 694 1042 m 694 1042 l 694 0 l 0 0 l 0 1042 l 694 1042 z "},"\n":{"ha":606,"x_min":0,"x_max":694,"o":"m 694 1042 l 694 0 l 0 0 l 0 1042 l 694 1042 m 694 1042 l 694 0 l 0 0 l 0 1042 l 694 1042 z "}," ":{"ha":606,"x_min":0,"x_max":521,"o":"m 521 1042 l 521 0 l 0 0 l 0 1042 l 521 1042 z "},"!":{"ha":606,"x_min":0,"x_max":694,"o":"m 694 1042 l 694 0 l 0 0 l 0 1042 l 694 1042 m 694 1042 l 694 0 l 0 0 l 0 1042 l 694 1042 z "},"\"":{"ha":606,"x_min":0,"x_max":694,"o":"m 694 1042 l 694 0 l 0 0 l 0 1042 l 694 1042 m 694 1042 l 694 0 l 0 0 l 0 1042 l 694 1042 z "},"#":{"ha":606,"x_min":0,"x_max":694,"o":"m 694 1042 l 694 0 l 0 0 l 0 1042 l 694 1042 m 694 1042 l 694 0 l 0 0 l 0 1042 l 694 1042 z "},"$":{"ha":606,"x_min":0,"x_max":694,"o":"m 694 1042 l 694 0 l 0 0 l 0 1042 l 694 1042 m 694 1042 l 694 0 l 0 0 l 0 1042 l 694 1042 z "},"%":{"ha":606,"x_min":0,"x_max":694,"o":"m 694 1042 l 694 0 l 0 0 l 0 1042 l 694 1042 m 694 1042 l 694 0 l 0 0 l 0 1042 l 694 1042 z "},"&":{"ha":606,"x_min":0,"x_max":694,"o":"m 694 1042 l 694 0 l 0 0 l 0 1042 l 694 1042 m 694 1042 l 694 0 l 0 0 l 0 1042 l 694 1042 z "},"'":{"ha":606,"x_min":0,"x_max":694,"o":"m 694 1042 l 694 0 l 0 0 l 0 1042 l 694 1042 m 694 1042 l 694 0 l 0 0 l 0 1042 l 694 1042 z "},"(":{"ha":606,"x_min":0,"x_max":694,"o":"m 694 1042 l 694 0 l 0 0 l 0 1042 l 694 1042 m 694 1042 l 694 0 l 0 0 l 0 1042 l 694 1042 z "},")":{"ha":606,"x_min":0,"x_max":694,"o":"m 694 1042 l 694 0 l 0 0 l 0 1042 l 694 1042 m 694 1042 l 694 0 l 0 0 l 0 1042 l 694 1042 z "},"*":{"ha":606,"x_min":0,"x_max":694,"o":"m 694 1042 l 694 0 l 0 0 l 0 1042 l 694 1042 m 694 1042 l 694 0 l 0 0 l 0 1042 l 694 1042 z "},"+":{"ha":606,"x_min":0,"x_max":694,"o":"m 694 1042 l 694 0 l 0 0 l 0 1042 l 694 1042 m 694 1042 l 694 0 l 0 0 l 0 1042 l 694 1042 z "},",":{"ha":606,"x_min":0,"x_max":694,"o":"m 694 1042 l 694 0 l 0 0 l 0 1042 l 694 1042 m 694 1042 l 694 0 l 0 0 l 0 1042 l 694 1042 z "},"-":{"ha":606,"x_min":0,"x_max":694,"o":"m 694 1042 l 694 0 l 0 0 l 0 1042 l 694 1042 m 694 1042 l 694 0 l 0 0 l 0 1042 l 694 1042 z "},".":{"ha":606,"x_min":0,"x_max":694,"o":"m 694 1042 l 694 0 l 0 0 l 0 1042 l 694 1042 m 694 1042 l 694 0 l 0 0 l 0 1042 l 694 1042 z "},"/":{"ha":606,"x_min":0,"x_max":694,"o":"m 694 1042 l 694 0 l 0 0 l 0 1042 l 694 1042 m 694 1042 l 694 0 l 0 0 l 0 1042 l 694 1042 z "},":":{"ha":606,"x_min":0,"x_max":694,"o":"m 694 1042 l 694 0 l 0 0 l 0 1042 l 694 1042 m 694 1042 l 694 0 l 0 0 l 0 1042 l 694 1042 z "},";":{"ha":606,"x_min":0,"x_max":694,"o":"m 694 1042 l 694 0 l 0 0 l 0 1042 l 694 1042 m 694 1042 l 694 0 l 0 0 l 0 1042 l 694 1042 z "},"<":{"ha":606,"x_min":0,"x_max":694,"o":"m 694 1042 l 694 0 l 0 0 l 0 1042 l 694 1042 m 694 1042 l 694 0 l 0 0 l 0 1042 l 694 1042 z "},"=":{"ha":606,"x_min":0,"x_max":694,"o":"m 694 1042 l 694 0 l 0 0 l 0 1042 l 694 1042 m 694 1042 l 694 0 l 0 0 l 0 1042 l 694 1042 z "},">":{"ha":606,"x_min":0,"x_max":694,"o":"m 694 1042 l 694 0 l 0 0 l 0 1042 l 694 1042 m 694 1042 l 694 0 l 0 0 l 0 1042 l 694 1042 z "},"?":{"ha":606,"x_min":0,"x_max":694,"o":"m 694 1042 l 694 0 l 0 0 l 0 1042 l 694 1042 m 694 1042 l 694 0 l 0 0 l 0 1042 l 694 1042 z "},"@":{"ha":606,"x_min":0,"x_max":694,"o":"m 694 1042 l 694 0 l 0 0 l 0 1042 l 694 1042 m 694 1042 l 694 0 l 0 0 l 0 1042 l 694 1042 z "},"A":{"ha":606,"x_min":0,"x_max":694,"o":"m 694 1042 l 694 0 l 0 0 l 0 1042 l 694 1042 m 694 1042 l 694 0 l 0 0 l 0 1042 l 694 1042 z "},"B":{"ha":606,"x_min":0,"x_max":694,"o":"m 694 1042 l 694 0 l 0 0 l 0 1042 l 694 1042 m 694 1042 l 694 0 l 0 0 l 0 1042 l 694 1042 z "},"C":{"ha":606,"x_min":0,"x_max":694,"o":"m 694 1042 l 694 0 l 0 0 l 0 1042 l 694 1042 m 694 1042 l 694 0 l 0 0 l 0 1042 l 694 1042 z "},"D":{"ha":606,"x_min":0,"x_max":694,"o":"m 694 1042 l 694 0 l 0 0 l 0 1042 l 694 1042 m 694 1042 l 694 0 l 0 0 l 0 1042 l 694 1042 z "},"E":{"ha":606,"x_min":0,"x_max":694,"o":"m 694 1042 l 694 0 l 0 0 l 0 1042 l 694 1042 m 694 1042 l 694 0 l 0 0 l 0 1042 l 694 1042 z "},"F":{"ha":606,"x_min":0,"x_max":694,"o":"m 694 1042 l 694 0 l 0 0 l 0 1042 l 694 1042 m 694 1042 l 694 0 l 0 0 l 0 1042 l 694 1042 z "},"G":{"ha":606,"x_min":0,"x_max":694,"o":"m 694 1042 l 694 0 l 0 0 l 0 1042 l 694 1042 m 694 1042 l 694 0 l 0 0 l 0 1042 l 694 1042 z "},"H":{"ha":606,"x_min":0,"x_max":694,"o":"m 694 1042 l 694 0 l 0 0 l 0 1042 l 694 1042 m 694 1042 l 694 0 l 0 0 l 0 1042 l 694 1042 z "},"I":{"ha":606,"x_min":0,"x_max":694,"o":"m 694 1042 l 694 0 l 0 0 l 0 1042 l 694 1042 m 694 1042 l 694 0 l 0 0 l 0 1042 l 694 1042 z "},"J":{"ha":606,"x_min":0,"x_max":694,"o":"m 694 1042 l 694 0 l 0 0 l 0 1042 l 694 1042 m 694 1042 l 694 0 l 0 0 l 0 1042 l 694 1042 z "},"K":{"ha":606,"x_min":0,"x_max":694,"o":"m 694 1042 l 694 0 l 0 0 l 0 1042 l 694 1042 m 694 1042 l 694 0 l 0 0 l 0 1042 l 694 1042 z "},"L":{"ha":606,"x_min":0,"x_max":694,"o":"m 694 1042 l 694 0 l 0 0 l 0 1042 l 694 1042 m 694 1042 l 694 0 l 0 0 l 0 1042 l 694 1042 z "},"M":{"ha":606,"x_min":0,"x_max":694,"o":"m 694 1042 l 694 0 l 0 0 l 0 1042 l 694 1042 m 694 1042 l 694 0 l 0 0 l 0 1042 l 694 1042 z "},"N":{"ha":606,"x_min":0,"x_max":694,"o":"m 694 1042 l 694 0 l 0 0 l 0 1042 l 694 1042 m 694 1042 l 694 0 l 0 0 l 0 1042 l 694 1042 z "},"O":{"ha":606,"x_min":0,"x_max":694,"o":"m 694 1042 l 694 0 l 0 0 l 0 1042 l 694 1042 m 694 1042 l 694 0 l 0 0 l 0 1042 l 694 1042 z "},"P":{"ha":606,"x_min":0,"x_max":694,"o":"m 694 1042 l 694 0 l 0 0 l 0 1042 l 694 1042 m 694 1042 l 694 0 l 0 0 l 0 1042 l 694 1042 z "},"Q":{"ha":606,"x_min":0,"x_max":694,"o":"m 694 1042 l 694 0 l 0 0 l 0 1042 l 694 1042 m 694 1042 l 694 0 l 0 0 l 0 1042 l 694 1042 z "},"R":{"ha":606,"x_min":0,"x_max":694,"o":"m 694 1042 l 694 0 l 0 0 l 0 1042 l 694 1042 m 694 1042 l 694 0 l 0 0 l 0 1042 l 694 1042 z "},"S":{"ha":606,"x_min":0,"x_max":694,"o":"m 694 1042 l 694 0 l 0 0 l 0 1042 l 694 1042 m 694 1042 l 694 0 l 0 0 l 0 1042 l 694 1042 z "},"T":{"ha":606,"x_min":0,"x_max":694,"o":"m 694 1042 l 694 0 l 0 0 l 0 1042 l 694 1042 m 694 1042 l 694 0 l 0 0 l 0 1042 l 694 1042 z "},"U":{"ha":606,"x_min":0,"x_max":694,"o":"m 694 1042 l 694 0 l 0 0 l 0 1042 l 694 1042 m 694 1042 l 694 0 l 0 0 l 0 1042 l 694 1042 z "},"V":{"ha":606,"x_min":0,"x_max":694,"o":"m 694 1042 l 694 0 l 0 0 l 0 1042 l 694 1042 m 694 1042 l 694 0 l 0 0 l 0 1042 l 694 1042 z "},"W":{"ha":606,"x_min":0,"x_max":694,"o":"m 694 1042 l 694 0 l 0 0 l 0 1042 l 694 1042 m 694 1042 l 694 0 l 0 0 l 0 1042 l 694 1042 z "},"X":{"ha":606,"x_min":0,"x_max":694,"o":"m 694 1042 l 694 0 l 0 0 l 0 1042 l 694 1042 m 694 1042 l 694 0 l 0 0 l 0 1042 l 694 1042 z "},"Y":{"ha":606,"x_min":0,"x_max":694,"o":"m 694 1042 l 694 0 l 0 0 l 0 1042 l 694 1042 m 694 1042 l 694 0 l 0 0 l 0 1042 l 694 1042 z "},"Z":{"ha":606,"x_min":0,"x_max":694,"o":"m 694 1042 l 694 0 l 0 0 l 0 1042 l 694 1042 m 694 1042 l 694 0 l 0 0 l 0 1042 l 694 1042 z "},"[":{"ha":606,"x_min":0,"x_max":694,"o":"m 694 1042 l 694 0 l 0 0 l 0 1042 l 694 1042 m 694 1042 l 694 0 l 0 0 l 0 1042 l 694 1042 z "},"\\":{"ha":606,"x_min":0,"x_max":694,"o":"m 694 1042 l 694 0 l 0 0 l 0 1042 l 694 1042 m 694 1042 l 694 0 l 0 0 l 0 1042 l 694 1042 z "},"]":{"ha":606,"x_min":0,"x_max":694,"o":"m 694 1042 l 694 0 l 0 0 l 0 1042 l 694 1042 m 694 1042 l 694 0 l 0 0 l 0 1042 l 694 1042 z "},"^":{"ha":606,"x_min":0,"x_max":694,"o":"m 694 1042 l 694 0 l 0 0 l 0 1042 l 694 1042 m 694 1042 l 694 0 l 0 0 l 0 1042 l 694 1042 z "},"_":{"ha":606,"x_min":0,"x_max":694,"o":"m 694 1042 l 694 0 l 0 0 l 0 1042 l 694 1042 m 694 1042 l 694 0 l 0 0 l 0 1042 l 694 1042 z "},"`":{"ha":606,"x_min":0,"x_max":694,"o":"m 694 1042 l 694 0 l 0 0 l 0 1042 l 694 1042 m 694 1042 l 694 0 l 0 0 l 0 1042 l 694 1042 z "},"a":{"ha":606,"x_min":0,"x_max":694,"o":"m 694 1042 l 694 0 l 0 0 l 0 1042 l 694 1042 m 694 1042 l 694 0 l 0 0 l 0 1042 l 694 1042 z "},"b":{"ha":606,"x_min":0,"x_max":694,"o":"m 694 1042 l 694 0 l 0 0 l 0 1042 l 694 1042 m 694 1042 l 694 0 l 0 0 l 0 1042 l 694 1042 z "},"c":{"ha":606,"x_min":0,"x_max":694,"o":"m 694 1042 l 694 0 l 0 0 l 0 1042 l 694 1042 m 694 1042 l 694 0 l 0 0 l 0 1042 l 694 1042 z "},"d":{"ha":606,"x_min":0,"x_max":694,"o":"m 694 1042 l 694 0 l 0 0 l 0 1042 l 694 1042 m 694 1042 l 694 0 l 0 0 l 0 1042 l 694 1042 z "},"e":{"ha":606,"x_min":0,"x_max":694,"o":"m 694 1042 l 694 0 l 0 0 l 0 1042 l 694 1042 m 694 1042 l 694 0 l 0 0 l 0 1042 l 694 1042 z "},"f":{"ha":606,"x_min":0,"x_max":694,"o":"m 694 1042 l 694 0 l 0 0 l 0 1042 l 694 1042 m 694 1042 l 694 0 l 0 0 l 0 1042 l 694 1042 z "},"g":{"ha":606,"x_min":0,"x_max":694,"o":"m 694 1042 l 694 0 l 0 0 l 0 1042 l 694 1042 m 694 1042 l 694 0 l 0 0 l 0 1042 l 694 1042 z "},"h":{"ha":606,"x_min":0,"x_max":694,"o":"m 694 1042 l 694 0 l 0 0 l 0 1042 l 694 1042 m 694 1042 l 694 0 l 0 0 l 0 1042 l 694 1042 z "},"i":{"ha":606,"x_min":0,"x_max":694,"o":"m 694 1042 l 694 0 l 0 0 l 0 1042 l 694 1042 m 694 1042 l 694 0 l 0 0 l 0 1042 l 694 1042 z "},"j":{"ha":606,"x_min":0,"x_max":694,"o":"m 694 1042 l 694 0 l 0 0 l 0 1042 l 694 1042 m 694 1042 l 694 0 l 0 0 l 0 1042 l 694 1042 z "},"k":{"ha":606,"x_min":0,"x_max":694,"o":"m 694 1042 l 694 0 l 0 0 l 0 1042 l 694 1042 m 694 1042 l 694 0 l 0 0 l 0 1042 l 694 1042 z "},"l":{"ha":606,"x_min":0,"x_max":694,"o":"m 694 1042 l 694 0 l 0 0 l 0 1042 l 694 1042 m 694 1042 l 694 0 l 0 0 l 0 1042 l 694 1042 z "},"m":{"ha":606,"x_min":0,"x_max":694,"o":"m 694 1042 l 694 0 l 0 0 l 0 1042 l 694 1042 m 694 1042 l 694 0 l 0 0 l 0 1042 l 694 1042 z "},"n":{"ha":606,"x_min":0,"x_max":694,"o":"m 694 1042 l 694 0 l 0 0 l 0 1042 l 694 1042 m 694 1042 l 694 0 l 0 0 l 0 1042 l 694 1042 z "},"o":{"ha":606,"x_min":0,"x_max":694,"o":"m 694 1042 l 694 0 l 0 0 l 0 1042 l 694 1042 m 694 1042 l 694 0 l 0 0 l 0 1042 l 694 1042 z "},"p":{"ha":606,"x_min":0,"x_max":694,"o":"m 694 1042 l 694 0 l 0 0 l 0 1042 l 694 1042 m 694 1042 l 694 0 l 0 0 l 0 1042 l 694 1042 z "},"q":{"ha":606,"x_min":0,"x_max":694,"o":"m 694 1042 l 694 0 l 0 0 l 0 1042 l 694 1042 m 694 1042 l 694 0 l 0 0 l 0 1042 l 694 1042 z "},"r":{"ha":606,"x_min":0,"x_max":694,"o":"m 694 1042 l 694 0 l 0 0 l 0 1042 l 694 1042 m 694 1042 l 694 0 l 0 0 l 0 1042 l 694 1042 z "},"s":{"ha":606,"x_min":0,"x_max":694,"o":"m 694 1042 l 694 0 l 0 0 l 0 1042 l 694 1042 m 694 1042 l 694 0 l 0 0 l 0 1042 l 694 1042 z "},"t":{"ha":606,"x_min":0,"x_max":694,"o":"m 694 1042 l 694 0 l 0 0 l 0 1042 l 694 1042 m 694 1042 l 694 0 l 0 0 l 0 1042 l 694 1042 z "},"u":{"ha":606,"x_min":0,"x_max":694,"o":"m 694 1042 l 694 0 l 0 0 l 0 1042 l 694 1042 m 694 1042 l 694 0 l 0 0 l 0 1042 l 694 1042 z "},"v":{"ha":606,"x_min":0,"x_max":694,"o":"m 694 1042 l 694 0 l 0 0 l 0 1042 l 694 1042 m 694 1042 l 694 0 l 0 0 l 0 1042 l 694 1042 z "},"w":{"ha":606,"x_min":0,"x_max":694,"o":"m 694 1042 l 694 0 l 0 0 l 0 1042 l 694 1042 m 694 1042 l 694 0 l 0 0 l 0 1042 l 694 1042 z "},"x":{"ha":606,"x_min":0,"x_max":694,"o":"m 694 1042 l 694 0 l 0 0 l 0 1042 l 694 1042 m 694 1042 l 694 0 l 0 0 l 0 1042 l 694 1042 z "},"y":{"ha":606,"x_min":0,"x_max":694,"o":"m 694 1042 l 694 0 l 0 0 l 0 1042 l 694 1042 m 694 1042 l 694 0 l 0 0 l 0 1042 l 694 1042 z "},"z":{"ha":606,"x_min":0,"x_max":694,"o":"m 694 1042 l 694 0 l 0 0 l 0 1042 l 694 1042 m 694 1042 l 694 0 l 0 0 l 0 1042 l 694 1042 z "},"{":{"ha":606,"x_min":0,"x_max":694,"o":"m 694 1042 l 694 0 l 0 0 l 0 1042 l 694 1042 m 694 1042 l 694 0 l 0 0 l 0 1042 l 694 1042 z "},"|":{"ha":606,"x_min":0,"x_max":694,"o":"m 694 1042 l 694 0 l 0 0 l 0 1042 l 694 1042 m 694 1042 l 694 0 l 0 0 l 0 1042 l 694 1042 z "},"}":{"ha":606,"x_min":0,"x_max":694,"o":"m 694 1042 l 694 0 l 0 0 l 0 1042 l 694 1042 m 694 1042 l 694 0 l 0 0 l 0 1042 l 694 1042 z "},"~":{"ha":606,"x_min":0,"x_max":694,"o":"m 694 1042 l 694 0 l 0 0 l 0 1042 l 694 1042 m 694 1042 l 694 0 l 0 0 l 0 1042 l 694 1042 z "}," ":{"ha":606,"x_min":0,"x_max":694,"o":"m 694 1042 l 694 0 l 0 0 l 0 1042 l 694 1042 m 694 1042 l 694 0 l 0 0 l 0 1042 l 694 1042 z "},"¡":{"ha":606,"x_min":0,"x_max":694,"o":"m 694 1042 l 694 0 l 0 0 l 0 1042 l 694 1042 m 694 1042 l 694 0 l 0 0 l 0 1042 l 694 1042 z "},"¢":{"ha":606,"x_min":0,"x_max":694,"o":"m 694 1042 l 694 0 l 0 0 l 0 1042 l 694 1042 m 694 1042 l 694 0 l 0 0 l 0 1042 l 694 1042 z "},"£":{"ha":606,"x_min":0,"x_max":694,"o":"m 694 1042 l 694 0 l 0 0 l 0 1042 l 694 1042 m 694 1042 l 694 0 l 0 0 l 0 1042 l 694 1042 z "},"¥":{"ha":606,"x_min":0,"x_max":694,"o":"m 694 1042 l 694 0 l 0 0 l 0 1042 l 694 1042 m 694 1042 l 694 0 l 0 0 l 0 1042 l 694 1042 z "},"§":{"ha":606,"x_min":0,"x_max":694,"o":"m 694 1042 l 694 0 l 0 0 l 0 1042 l 694 1042 m 694 1042 l 694 0 l 0 0 l 0 1042 l 694 1042 z "},"¨":{"ha":606,"x_min":0,"x_max":694,"o":"m 694 1042 l 694 0 l 0 0 l 0 1042 l 694 1042 m 694 1042 l 694 0 l 0 0 l 0 1042 l 694 1042 z "},"©":{"ha":606,"x_min":0,"x_max":694,"o":"m 694 1042 l 694 0 l 0 0 l 0 1042 l 694 1042 m 694 1042 l 694 0 l 0 0 l 0 1042 l 694 1042 z "},"ª":{"ha":606,"x_min":0,"x_max":694,"o":"m 694 1042 l 694 0 l 0 0 l 0 1042 l 694 1042 m 694 1042 l 694 0 l 0 0 l 0 1042 l 694 1042 z "},"«":{"ha":606,"x_min":0,"x_max":694,"o":"m 694 1042 l 694 0 l 0 0 l 0 1042 l 694 1042 m 694 1042 l 694 0 l 0 0 l 0 1042 l 694 1042 z "},"¬":{"ha":606,"x_min":0,"x_max":694,"o":"m 694 1042 l 694 0 l 0 0 l 0 1042 l 694 1042 m 694 1042 l 694 0 l 0 0 l 0 1042 l 694 1042 z "},"­":{"ha":606,"x_min":0,"x_max":694,"o":"m 694 1042 l 694 0 l 0 0 l 0 1042 l 694 1042 m 694 1042 l 694 0 l 0 0 l 0 1042 l 694 1042 z "},"®":{"ha":606,"x_min":0,"x_max":694,"o":"m 694 1042 l 694 0 l 0 0 l 0 1042 l 694 1042 m 694 1042 l 694 0 l 0 0 l 0 1042 l 694 1042 z "},"¯":{"ha":606,"x_min":0,"x_max":694,"o":"m 694 1042 l 694 0 l 0 0 l 0 1042 l 694 1042 m 694 1042 l 694 0 l 0 0 l 0 1042 l 694 1042 z "},"°":{"ha":606,"x_min":0,"x_max":694,"o":"m 694 1042 l 694 0 l 0 0 l 0 1042 l 694 1042 m 694 1042 l 694 0 l 0 0 l 0 1042 l 694 1042 z "},"±":{"ha":606,"x_min":0,"x_max":694,"o":"m 694 1042 l 694 0 l 0 0 l 0 1042 l 694 1042 m 694 1042 l 694 0 l 0 0 l 0 1042 l 694 1042 z "},"´":{"ha":606,"x_min":0,"x_max":694,"o":"m 694 1042 l 694 0 l 0 0 l 0 1042 l 694 1042 m 694 1042 l 694 0 l 0 0 l 0 1042 l 694 1042 z "},"µ":{"ha":606,"x_min":0,"x_max":694,"o":"m 694 1042 l 694 0 l 0 0 l 0 1042 l 694 1042 m 694 1042 l 694 0 l 0 0 l 0 1042 l 694 1042 z "},"¶":{"ha":606,"x_min":0,"x_max":694,"o":"m 694 1042 l 694 0 l 0 0 l 0 1042 l 694 1042 m 694 1042 l 694 0 l 0 0 l 0 1042 l 694 1042 z "},"·":{"ha":606,"x_min":0,"x_max":694,"o":"m 694 1042 l 694 0 l 0 0 l 0 1042 l 694 1042 m 694 1042 l 694 0 l 0 0 l 0 1042 l 694 1042 z "},"¸":{"ha":606,"x_min":0,"x_max":694,"o":"m 694 1042 l 694 0 l 0 0 l 0 1042 l 694 1042 m 694 1042 l 694 0 l 0 0 l 0 1042 l 694 1042 z "},"º":{"ha":606,"x_min":0,"x_max":694,"o":"m 694 1042 l 694 0 l 0 0 l 0 1042 l 694 1042 m 694 1042 l 694 0 l 0 0 l 0 1042 l 694 1042 z "},"»":{"ha":606,"x_min":0,"x_max":694,"o":"m 694 1042 l 694 0 l 0 0 l 0 1042 l 694 1042 m 694 1042 l 694 0 l 0 0 l 0 1042 l 694 1042 z "},"¿":{"ha":606,"x_min":0,"x_max":694,"o":"m 694 1042 l 694 0 l 0 0 l 0 1042 l 694 1042 m 694 1042 l 694 0 l 0 0 l 0 1042 l 694 1042 z "},"À":{"ha":606,"x_min":0,"x_max":694,"o":"m 694 1042 l 694 0 l 0 0 l 0 1042 l 694 1042 m 694 1042 l 694 0 l 0 0 l 0 1042 l 694 1042 z "},"Á":{"ha":606,"x_min":0,"x_max":694,"o":"m 694 1042 l 694 0 l 0 0 l 0 1042 l 694 1042 m 694 1042 l 694 0 l 0 0 l 0 1042 l 694 1042 z "},"Â":{"ha":606,"x_min":0,"x_max":694,"o":"m 694 1042 l 694 0 l 0 0 l 0 1042 l 694 1042 m 694 1042 l 694 0 l 0 0 l 0 1042 l 694 1042 z "},"Ã":{"ha":606,"x_min":0,"x_max":694,"o":"m 694 1042 l 694 0 l 0 0 l 0 1042 l 694 1042 m 694 1042 l 694 0 l 0 0 l 0 1042 l 694 1042 z "},"Ä":{"ha":606,"x_min":0,"x_max":694,"o":"m 694 1042 l 694 0 l 0 0 l 0 1042 l 694 1042 m 694 1042 l 694 0 l 0 0 l 0 1042 l 694 1042 z "},"Å":{"ha":606,"x_min":0,"x_max":694,"o":"m 694 1042 l 694 0 l 0 0 l 0 1042 l 694 1042 m 694 1042 l 694 0 l 0 0 l 0 1042 l 694 1042 z "},"Æ":{"ha":606,"x_min":0,"x_max":694,"o":"m 694 1042 l 694 0 l 0 0 l 0 1042 l 694 1042 m 694 1042 l 694 0 l 0 0 l 0 1042 l 694 1042 z "},"Ç":{"ha":606,"x_min":0,"x_max":694,"o":"m 694 1042 l 694 0 l 0 0 l 0 1042 l 694 1042 m 694 1042 l 694 0 l 0 0 l 0 1042 l 694 1042 z "},"È":{"ha":606,"x_min":0,"x_max":694,"o":"m 694 1042 l 694 0 l 0 0 l 0 1042 l 694 1042 m 694 1042 l 694 0 l 0 0 l 0 1042 l 694 1042 z "},"É":{"ha":606,"x_min":0,"x_max":694,"o":"m 694 1042 l 694 0 l 0 0 l 0 1042 l 694 1042 m 694 1042 l 694 0 l 0 0 l 0 1042 l 694 1042 z "},"Ê":{"ha":606,"x_min":0,"x_max":694,"o":"m 694 1042 l 694 0 l 0 0 l 0 1042 l 694 1042 m 694 1042 l 694 0 l 0 0 l 0 1042 l 694 1042 z "},"Ë":{"ha":606,"x_min":0,"x_max":694,"o":"m 694 1042 l 694 0 l 0 0 l 0 1042 l 694 1042 m 694 1042 l 694 0 l 0 0 l 0 1042 l 694 1042 z "},"Ì":{"ha":606,"x_min":0,"x_max":694,"o":"m 694 1042 l 694 0 l 0 0 l 0 1042 l 694 1042 m 694 1042 l 694 0 l 0 0 l 0 1042 l 694 1042 z "},"Í":{"ha":606,"x_min":0,"x_max":694,"o":"m 694 1042 l 694 0 l 0 0 l 0 1042 l 694 1042 m 694 1042 l 694 0 l 0 0 l 0 1042 l 694 1042 z "},"Î":{"ha":606,"x_min":0,"x_max":694,"o":"m 694 1042 l 694 0 l 0 0 l 0 1042 l 694 1042 m 694 1042 l 694 0 l 0 0 l 0 1042 l 694 1042 z "},"Ï":{"ha":606,"x_min":0,"x_max":694,"o":"m 694 1042 l 694 0 l 0 0 l 0 1042 l 694 1042 m 694 1042 l 694 0 l 0 0 l 0 1042 l 694 1042 z "},"Ñ":{"ha":606,"x_min":0,"x_max":694,"o":"m 694 1042 l 694 0 l 0 0 l 0 1042 l 694 1042 m 694 1042 l 694 0 l 0 0 l 0 1042 l 694 1042 z "},"Ò":{"ha":606,"x_min":0,"x_max":694,"o":"m 694 1042 l 694 0 l 0 0 l 0 1042 l 694 1042 m 694 1042 l 694 0 l 0 0 l 0 1042 l 694 1042 z "},"Ó":{"ha":606,"x_min":0,"x_max":694,"o":"m 694 1042 l 694 0 l 0 0 l 0 1042 l 694 1042 m 694 1042 l 694 0 l 0 0 l 0 1042 l 694 1042 z "},"Ô":{"ha":606,"x_min":0,"x_max":694,"o":"m 694 1042 l 694 0 l 0 0 l 0 1042 l 694 1042 m 694 1042 l 694 0 l 0 0 l 0 1042 l 694 1042 z "},"Õ":{"ha":606,"x_min":0,"x_max":694,"o":"m 694 1042 l 694 0 l 0 0 l 0 1042 l 694 1042 m 694 1042 l 694 0 l 0 0 l 0 1042 l 694 1042 z "},"Ö":{"ha":606,"x_min":0,"x_max":694,"o":"m 694 1042 l 694 0 l 0 0 l 0 1042 l 694 1042 m 694 1042 l 694 0 l 0 0 l 0 1042 l 694 1042 z "},"Ø":{"ha":606,"x_min":0,"x_max":694,"o":"m 694 1042 l 694 0 l 0 0 l 0 1042 l 694 1042 m 694 1042 l 694 0 l 0 0 l 0 1042 l 694 1042 z "},"Ù":{"ha":606,"x_min":0,"x_max":694,"o":"m 694 1042 l 694 0 l 0 0 l 0 1042 l 694 1042 m 694 1042 l 694 0 l 0 0 l 0 1042 l 694 1042 z "},"Ú":{"ha":606,"x_min":0,"x_max":694,"o":"m 694 1042 l 694 0 l 0 0 l 0 1042 l 694 1042 m 694 1042 l 694 0 l 0 0 l 0 1042 l 694 1042 z "},"Û":{"ha":606,"x_min":0,"x_max":694,"o":"m 694 1042 l 694 0 l 0 0 l 0 1042 l 694 1042 m 694 1042 l 694 0 l 0 0 l 0 1042 l 694 1042 z "},"Ü":{"ha":606,"x_min":0,"x_max":694,"o":"m 694 1042 l 694 0 l 0 0 l 0 1042 l 694 1042 m 694 1042 l 694 0 l 0 0 l 0 1042 l 694 1042 z "},"ß":{"ha":606,"x_min":0,"x_max":694,"o":"m 694 1042 l 694 0 l 0 0 l 0 1042 l 694 1042 m 694 1042 l 694 0 l 0 0 l 0 1042 l 694 1042 z "},"à":{"ha":606,"x_min":0,"x_max":694,"o":"m 694 1042 l 694 0 l 0 0 l 0 1042 l 694 1042 m 694 1042 l 694 0 l 0 0 l 0 1042 l 694 1042 z "},"á":{"ha":606,"x_min":0,"x_max":694,"o":"m 694 1042 l 694 0 l 0 0 l 0 1042 l 694 1042 m 694 1042 l 694 0 l 0 0 l 0 1042 l 694 1042 z "},"â":{"ha":606,"x_min":0,"x_max":694,"o":"m 694 1042 l 694 0 l 0 0 l 0 1042 l 694 1042 m 694 1042 l 694 0 l 0 0 l 0 1042 l 694 1042 z "},"ã":{"ha":606,"x_min":0,"x_max":694,"o":"m 694 1042 l 694 0 l 0 0 l 0 1042 l 694 1042 m 694 1042 l 694 0 l 0 0 l 0 1042 l 694 1042 z "},"ä":{"ha":606,"x_min":0,"x_max":694,"o":"m 694 1042 l 694 0 l 0 0 l 0 1042 l 694 1042 m 694 1042 l 694 0 l 0 0 l 0 1042 l 694 1042 z "},"å":{"ha":606,"x_min":0,"x_max":694,"o":"m 694 1042 l 694 0 l 0 0 l 0 1042 l 694 1042 m 694 1042 l 694 0 l 0 0 l 0 1042 l 694 1042 z "},"æ":{"ha":606,"x_min":0,"x_max":694,"o":"m 694 1042 l 694 0 l 0 0 l 0 1042 l 694 1042 m 694 1042 l 694 0 l 0 0 l 0 1042 l 694 1042 z "},"ç":{"ha":606,"x_min":0,"x_max":694,"o":"m 694 1042 l 694 0 l 0 0 l 0 1042 l 694 1042 m 694 1042 l 694 0 l 0 0 l 0 1042 l 694 1042 z "},"è":{"ha":606,"x_min":0,"x_max":694,"o":"m 694 1042 l 694 0 l 0 0 l 0 1042 l 694 1042 m 694 1042 l 694 0 l 0 0 l 0 1042 l 694 1042 z "},"é":{"ha":606,"x_min":0,"x_max":694,"o":"m 694 1042 l 694 0 l 0 0 l 0 1042 l 694 1042 m 694 1042 l 694 0 l 0 0 l 0 1042 l 694 1042 z "},"ê":{"ha":606,"x_min":0,"x_max":694,"o":"m 694 1042 l 694 0 l 0 0 l 0 1042 l 694 1042 m 694 1042 l 694 0 l 0 0 l 0 1042 l 694 1042 z "},"ë":{"ha":606,"x_min":0,"x_max":694,"o":"m 694 1042 l 694 0 l 0 0 l 0 1042 l 694 1042 m 694 1042 l 694 0 l 0 0 l 0 1042 l 694 1042 z "},"ì":{"ha":606,"x_min":0,"x_max":694,"o":"m 694 1042 l 694 0 l 0 0 l 0 1042 l 694 1042 m 694 1042 l 694 0 l 0 0 l 0 1042 l 694 1042 z "},"í":{"ha":606,"x_min":0,"x_max":694,"o":"m 694 1042 l 694 0 l 0 0 l 0 1042 l 694 1042 m 694 1042 l 694 0 l 0 0 l 0 1042 l 694 1042 z "},"î":{"ha":606,"x_min":0,"x_max":694,"o":"m 694 1042 l 694 0 l 0 0 l 0 1042 l 694 1042 m 694 1042 l 694 0 l 0 0 l 0 1042 l 694 1042 z "},"ï":{"ha":606,"x_min":0,"x_max":694,"o":"m 694 1042 l 694 0 l 0 0 l 0 1042 l 694 1042 m 694 1042 l 694 0 l 0 0 l 0 1042 l 694 1042 z "},"ñ":{"ha":606,"x_min":0,"x_max":694,"o":"m 694 1042 l 694 0 l 0 0 l 0 1042 l 694 1042 m 694 1042 l 694 0 l 0 0 l 0 1042 l 694 1042 z "},"ò":{"ha":606,"x_min":0,"x_max":694,"o":"m 694 1042 l 694 0 l 0 0 l 0 1042 l 694 1042 m 694 1042 l 694 0 l 0 0 l 0 1042 l 694 1042 z "},"ó":{"ha":606,"x_min":0,"x_max":694,"o":"m 694 1042 l 694 0 l 0 0 l 0 1042 l 694 1042 m 694 1042 l 694 0 l 0 0 l 0 1042 l 694 1042 z "},"ô":{"ha":606,"x_min":0,"x_max":694,"o":"m 694 1042 l 694 0 l 0 0 l 0 1042 l 694 1042 m 694 1042 l 694 0 l 0 0 l 0 1042 l 694 1042 z "},"õ":{"ha":606,"x_min":0,"x_max":694,"o":"m 694 1042 l 694 0 l 0 0 l 0 1042 l 694 1042 m 694 1042 l 694 0 l 0 0 l 0 1042 l 694 1042 z "},"ö":{"ha":606,"x_min":0,"x_max":694,"o":"m 694 1042 l 694 0 l 0 0 l 0 1042 l 694 1042 m 694 1042 l 694 0 l 0 0 l 0 1042 l 694 1042 z "},"÷":{"ha":606,"x_min":0,"x_max":694,"o":"m 694 1042 l 694 0 l 0 0 l 0 1042 l 694 1042 m 694 1042 l 694 0 l 0 0 l 0 1042 l 694 1042 z "},"ø":{"ha":606,"x_min":0,"x_max":694,"o":"m 694 1042 l 694 0 l 0 0 l 0 1042 l 694 1042 m 694 1042 l 694 0 l 0 0 l 0 1042 l 694 1042 z "},"ù":{"ha":606,"x_min":0,"x_max":694,"o":"m 694 1042 l 694 0 l 0 0 l 0 1042 l 694 1042 m 694 1042 l 694 0 l 0 0 l 0 1042 l 694 1042 z "},"ú":{"ha":606,"x_min":0,"x_max":694,"o":"m 694 1042 l 694 0 l 0 0 l 0 1042 l 694 1042 m 694 1042 l 694 0 l 0 0 l 0 1042 l 694 1042 z "},"û":{"ha":606,"x_min":0,"x_max":694,"o":"m 694 1042 l 694 0 l 0 0 l 0 1042 l 694 1042 m 694 1042 l 694 0 l 0 0 l 0 1042 l 694 1042 z "},"ü":{"ha":606,"x_min":0,"x_max":694,"o":"m 694 1042 l 694 0 l 0 0 l 0 1042 l 694 1042 m 694 1042 l 694 0 l 0 0 l 0 1042 l 694 1042 z "},"ÿ":{"ha":606,"x_min":0,"x_max":694,"o":"m 694 1042 l 694 0 l 0 0 l 0 1042 l 694 1042 m 694 1042 l 694 0 l 0 0 l 0 1042 l 694 1042 z "},"Œ":{"ha":606,"x_min":0,"x_max":694,"o":"m 694 1042 l 694 0 l 0 0 l 0 1042 l 694 1042 m 694 1042 l 694 0 l 0 0 l 0 1042 l 694 1042 z "},"œ":{"ha":606,"x_min":0,"x_max":694,"o":"m 694 1042 l 694 0 l 0 0 l 0 1042 l 694 1042 m 694 1042 l 694 0 l 0 0 l 0 1042 l 694 1042 z "},"Ÿ":{"ha":606,"x_min":0,"x_max":694,"o":"m 694 1042 l 694 0 l 0 0 l 0 1042 l 694 1042 m 694 1042 l 694 0 l 0 0 l 0 1042 l 694 1042 z "},"ˆ":{"ha":606,"x_min":0,"x_max":694,"o":"m 694 1042 l 694 0 l 0 0 l 0 1042 l 694 1042 m 694 1042 l 694 0 l 0 0 l 0 1042 l 694 1042 z "},"˜":{"ha":606,"x_min":0,"x_max":694,"o":"m 694 1042 l 694 0 l 0 0 l 0 1042 l 694 1042 m 694 1042 l 694 0 l 0 0 l 0 1042 l 694 1042 z "}," ":{"ha":521,"x_min":0,"x_max":0,"o":""}," ":{"ha":1042,"x_min":0,"x_max":0,"o":""}," ":{"ha":521,"x_min":0,"x_max":0,"o":""}," ":{"ha":1042,"x_min":0,"x_max":0,"o":""}," ":{"ha":347,"x_min":0,"x_max":0,"o":""}," ":{"ha":260,"x_min":0,"x_max":0,"o":""}," ":{"ha":174,"x_min":0,"x_max":0,"o":""}," ":{"ha":174,"x_min":0,"x_max":0,"o":""}," ":{"ha":130,"x_min":0,"x_max":0,"o":""}," ":{"ha":208,"x_min":0,"x_max":0,"o":""}," ":{"ha":58,"x_min":0,"x_max":0,"o":""},"‐":{"ha":606,"x_min":0,"x_max":694,"o":"m 694 1042 l 694 0 l 0 0 l 0 1042 l 694 1042 m 694 1042 l 694 0 l 0 0 l 0 1042 l 694 1042 z "},"‑":{"ha":606,"x_min":0,"x_max":694,"o":"m 694 1042 l 694 0 l 0 0 l 0 1042 l 694 1042 m 694 1042 l 694 0 l 0 0 l 0 1042 l 694 1042 z "},"‒":{"ha":606,"x_min":0,"x_max":694,"o":"m 694 1042 l 694 0 l 0 0 l 0 1042 l 694 1042 m 694 1042 l 694 0 l 0 0 l 0 1042 l 694 1042 z "},"–":{"ha":606,"x_min":0,"x_max":694,"o":"m 694 1042 l 694 0 l 0 0 l 0 1042 l 694 1042 m 694 1042 l 694 0 l 0 0 l 0 1042 l 694 1042 z "},"—":{"ha":606,"x_min":0,"x_max":694,"o":"m 694 1042 l 694 0 l 0 0 l 0 1042 l 694 1042 m 694 1042 l 694 0 l 0 0 l 0 1042 l 694 1042 z "},"‘":{"ha":606,"x_min":0,"x_max":694,"o":"m 694 1042 l 694 0 l 0 0 l 0 1042 l 694 1042 m 694 1042 l 694 0 l 0 0 l 0 1042 l 694 1042 z "},"’":{"ha":606,"x_min":0,"x_max":694,"o":"m 694 1042 l 694 0 l 0 0 l 0 1042 l 694 1042 m 694 1042 l 694 0 l 0 0 l 0 1042 l 694 1042 z "},"‚":{"ha":606,"x_min":0,"x_max":694,"o":"m 694 1042 l 694 0 l 0 0 l 0 1042 l 694 1042 m 694 1042 l 694 0 l 0 0 l 0 1042 l 694 1042 z "},"“":{"ha":606,"x_min":0,"x_max":694,"o":"m 694 1042 l 694 0 l 0 0 l 0 1042 l 694 1042 m 694 1042 l 694 0 l 0 0 l 0 1042 l 694 1042 z "},"”":{"ha":606,"x_min":0,"x_max":694,"o":"m 694 1042 l 694 0 l 0 0 l 0 1042 l 694 1042 m 694 1042 l 694 0 l 0 0 l 0 1042 l 694 1042 z "},"„":{"ha":606,"x_min":0,"x_max":694,"o":"m 694 1042 l 694 0 l 0 0 l 0 1042 l 694 1042 m 694 1042 l 694 0 l 0 0 l 0 1042 l 694 1042 z "},"•":{"ha":606,"x_min":0,"x_max":694,"o":"m 694 1042 l 694 0 l 0 0 l 0 1042 l 694 1042 m 694 1042 l 694 0 l 0 0 l 0 1042 l 694 1042 z "},"…":{"ha":606,"x_min":0,"x_max":694,"o":"m 694 1042 l 694 0 l 0 0 l 0 1042 l 694 1042 m 694 1042 l 694 0 l 0 0 l 0 1042 l 694 1042 z "}," ":{"ha":208,"x_min":0,"x_max":0,"o":""},"‹":{"ha":606,"x_min":0,"x_max":694,"o":"m 694 1042 l 694 0 l 0 0 l 0 1042 l 694 1042 m 694 1042 l 694 0 l 0 0 l 0 1042 l 694 1042 z "},"›":{"ha":606,"x_min":0,"x_max":694,"o":"m 694 1042 l 694 0 l 0 0 l 0 1042 l 694 1042 m 694 1042 l 694 0 l 0 0 l 0 1042 l 694 1042 z "}," ":{"ha":260,"x_min":0,"x_max":0,"o":""},"€":{"ha":606,"x_min":0,"x_max":694,"o":"m 694 1042 l 694 0 l 0 0 l 0 1042 l 694 1042 m 694 1042 l 694 0 l 0 0 l 0 1042 l 694 1042 z "},"™":{"ha":606,"x_min":0,"x_max":694,"o":"m 694 1042 l 694 0 l 0 0 l 0 1042 l 694 1042 m 694 1042 l 694 0 l 0 0 l 0 1042 l 694 1042 z "},"":{"ha":1042,"x_min":0,"x_max":1042,"o":"m 0 1042 l 1042 1042 l 1042 0 l 0 0 l 0 1042 z "},"ﬁ":{"ha":606,"x_min":0,"x_max":694,"o":"m 694 1042 l 694 0 l 0 0 l 0 1042 l 694 1042 m 694 1042 l 694 0 l 0 0 l 0 1042 l 694 1042 z "},"ﬂ":{"ha":606,"x_min":0,"x_max":694,"o":"m 694 1042 l 694 0 l 0 0 l 0 1042 l 694 1042 m 694 1042 l 694 0 l 0 0 l 0 1042 l 694 1042 z "}}}
